<svg width="48" height="81" viewBox="0 0 48 81" fill="none" xmlns="http://www.w3.org/2000/svg">
<path fill-rule="evenodd" clip-rule="evenodd" d="M2.15249 59.6824C2.15249 60.1769 2.24237 60.536 2.42214 60.7583C2.60267 60.9806 2.92107 61.0925 3.37887 61.0925H8.01548V56.6155C8.01548 54.8848 8.81758 54.019 10.4202 54.019H13.4626V59.6332C13.4626 61.364 12.6612 62.2298 11.0578 62.2298H3.404C1.80057 62.2298 1 61.364 1 59.6332V57.3573L2.15325 56.6163V59.6824H2.15249ZM9.16873 61.0925H11.0822C11.5407 61.0925 11.8591 60.9806 12.0397 60.7576C12.2194 60.5353 12.3093 60.1769 12.3093 59.6816V55.157H10.3966C9.93731 55.157 9.61967 55.2681 9.43991 55.4897C9.25938 55.7127 9.1695 56.0719 9.1695 56.5664V61.0925H9.16873ZM10.0523 51.0754C10.0523 50.8622 10.1262 50.6807 10.2732 50.531C10.3429 50.4591 10.4267 50.4022 10.5195 50.364C10.6123 50.3257 10.7121 50.3069 10.8125 50.3087C11.0251 50.3087 11.2048 50.3836 11.3518 50.5318C11.4241 50.6028 11.481 50.6878 11.5191 50.7813C11.5572 50.8749 11.5757 50.9753 11.5735 51.0762C11.5757 51.1769 11.5573 51.2771 11.5193 51.3705C11.4813 51.464 11.4246 51.5488 11.3526 51.6198C11.2829 51.6919 11.1989 51.7488 11.106 51.7871C11.0131 51.8253 10.9131 51.8441 10.8125 51.8421C10.7121 51.8439 10.6123 51.8251 10.5195 51.7869C10.4267 51.7486 10.3429 51.6917 10.2732 51.6198C10.2013 51.5486 10.1446 51.4637 10.1066 51.3701C10.0686 51.2765 10.0502 51.1763 10.0523 51.0754ZM15.7683 56.6155C15.7683 54.8848 16.5696 54.019 18.1731 54.019H21.2154V62.477C21.2154 63.0872 21.1575 63.6354 21.044 64.1208C20.929 64.6078 20.7325 65.0244 20.4544 65.3707C20.1764 65.717 19.7956 65.9968 19.3141 66.2115C18.8312 66.4247 18.2142 66.5578 17.4609 66.607L16.7258 65.593C17.8699 65.5597 18.7131 65.3284 19.2524 64.9004C19.7925 64.4717 20.0622 63.7874 20.0622 62.8483V62.2298H18.1731C16.5696 62.2298 15.7683 61.364 15.7683 59.6332V56.6155ZM16.9216 59.6816C16.9216 60.1769 17.0114 60.536 17.192 60.7576C17.371 60.9806 17.6909 61.0925 18.1479 61.0925H20.0622V55.157H18.1479C17.6909 55.157 17.371 55.2681 17.192 55.4897C17.0114 55.7127 16.9216 56.0719 16.9216 56.5664V59.6816ZM25.7781 63.0948C25.7781 63.556 25.7454 63.9567 25.6799 64.2947C25.6213 64.6134 25.5051 64.919 25.3371 65.1968C25.1733 65.4614 24.9479 65.7034 24.6622 65.9264C24.3758 66.1495 24.0193 66.3763 23.5943 66.607L22.7853 65.5688C23.0935 65.4307 23.3927 65.2736 23.6811 65.0985C23.918 64.9503 24.1062 64.7847 24.2448 64.604C24.3827 64.4225 24.4824 64.2161 24.5396 63.9855C24.5967 63.7541 24.6256 63.466 24.6256 63.1205V54.019H25.7781V61.0925H26.7356V62.2298H25.7781V63.0948ZM33.5797 62.2298C33.0237 62.2298 32.5659 62.0649 32.2063 61.7353C31.846 62.0649 31.3875 62.2298 30.8322 62.2298H26.6122V61.0925H31.3715C30.9604 60.5672 30.5269 60.0597 30.072 59.5712C29.568 59.0441 29.0355 58.5446 28.4769 58.0749V57.8518C28.4769 57.2756 28.5668 56.7479 28.7473 56.27C28.9121 55.8125 29.1719 55.3944 29.5097 55.0428C29.8476 54.6913 30.2561 54.4141 30.7088 54.2292C31.184 54.0366 31.6931 53.9399 32.2063 53.9449C32.7191 53.9394 33.2277 54.0358 33.7024 54.2285C34.1554 54.4132 34.5643 54.6904 34.9025 55.0421C35.2407 55.3938 35.5006 55.8121 35.6653 56.27C35.8451 56.7479 35.935 57.2756 35.935 57.8518V58.0741C35.3764 58.5436 34.8442 59.0432 34.3407 59.5705C33.8854 60.0588 33.4516 60.5663 33.0404 61.0918H37.0639V62.2298H33.5797ZM32.2063 60.3493C32.6248 59.7912 33.0667 59.2508 33.531 58.7297C33.7267 58.5074 33.9271 58.2934 34.1312 58.087L34.7825 57.4314C34.7002 56.7229 34.4176 56.1581 33.9354 55.7377C33.4533 55.3173 32.8766 55.1063 32.2063 55.1071C31.5353 55.1071 30.9586 55.3173 30.4757 55.7377C29.9935 56.1581 29.7117 56.7229 29.6302 57.4314L30.2799 58.087C30.4848 58.2934 30.6852 58.5074 30.8817 58.7297C31.0775 58.9527 31.2824 59.1909 31.4941 59.448C31.7066 59.7028 31.9435 60.0037 32.2063 60.3493ZM38.8051 56.5913C38.8051 55.7165 39.0337 55.0572 39.4922 54.6126C39.9493 54.1665 40.6196 53.9442 41.5039 53.9442C42.3875 53.9442 43.0655 54.1672 43.5393 54.6126C44.0138 55.0572 44.2522 55.7165 44.2522 56.5906V61.6604C44.2522 63.407 43.3359 64.2819 41.5039 64.2819C40.7674 64.2819 40.1671 64.117 39.7002 63.7874C39.234 63.4577 38.9354 62.9382 38.8051 62.2298H36.9404V61.0918H38.8051V56.5913ZM39.9584 61.6604C39.9584 62.1882 40.0848 62.567 40.3393 62.7976C40.5922 63.029 40.9806 63.1447 41.5047 63.1447C42.0608 63.1447 42.4645 63.029 42.7181 62.7976C42.9718 62.567 43.099 62.1882 43.099 61.6604V56.5664C43.099 56.0379 42.9718 55.659 42.7181 55.4284C42.4645 55.1971 42.06 55.0821 41.5039 55.0821C40.9806 55.0821 40.5922 55.1971 40.3385 55.4284C40.0848 55.659 39.9584 56.0379 39.9584 56.5664V61.6604ZM6.82034 72.6401L6.93231 71.1618L5.09503 76.7677C4.98153 77.0762 4.70808 77.2872 4.38663 77.2872C4.14364 77.2872 3.83742 77.1254 3.6927 76.8154L1.91864 71.0484L2.03138 72.6408V80.8304H1.00076V70.3006C0.985527 69.1952 2.45185 69.2118 2.67656 70.0889C3.36972 72.2181 3.75668 74.0207 4.36911 76.15C5.03028 74.1508 5.56197 71.9732 6.19115 70.0405C6.49737 69.1143 7.81896 69.1468 7.86695 70.2673V80.8304H6.83633V80.7639H6.8211V72.6401H6.82034ZM14.0895 76.8328H11.0586C10.5109 78.9605 10.2374 79.985 10.044 80.8296H8.93184L11.6398 70.1214C11.7997 69.6012 12.2194 69.3252 12.5904 69.3252C12.9454 69.3252 13.3803 69.6337 13.509 70.1048L16.2665 80.8296H15.1208L14.0895 76.832V76.8328ZM12.6224 70.4791L11.3 75.7923H13.832L12.6232 70.4791H12.6224ZM12.5904 70.3324L12.6224 70.4791C12.6224 70.4465 12.6224 70.4299 12.6392 70.3982L12.5904 70.3324ZM18.2317 69.4386H20.488C21.9718 69.4386 23.0672 70.5441 23.0672 72.0397V73.778C23.0672 74.5742 22.3092 75.744 21.3266 75.874C22.4067 76.0199 23.1151 77.1897 23.1151 78.0017V80.8296H22.0678V78.0017C22.0678 77.0921 21.0196 76.4101 20.181 76.4101H18.3437V80.8296H17.3131V70.3808C17.3131 69.8288 17.6833 69.4386 18.2325 69.4386H18.2317ZM18.3437 70.4949V70.4307C18.3285 70.4632 18.3117 70.4949 18.2637 70.4949H18.3437ZM18.3437 70.4949V75.3538H20.181C21.0189 75.3538 22.019 74.671 22.019 73.778V72.0389C22.019 71.1936 21.3586 70.4949 20.488 70.4949H18.3437ZM24.436 72.0223C24.436 70.2507 25.9031 69.3577 27.4014 69.3577C28.8852 69.3577 30.3683 70.2507 30.3683 72.0223V78.2452C30.3683 80.0334 28.8852 80.9272 27.4014 80.9272C25.9031 80.9272 24.436 80.0334 24.436 78.246V72.0231V72.0223ZM25.4681 78.2452C25.4681 79.3189 26.4195 79.8709 27.4014 79.8709C28.3688 79.8709 29.3209 79.3189 29.3209 78.2452V72.0223C29.3209 70.9668 28.3688 70.414 27.4014 70.414C26.4187 70.414 25.4681 70.966 25.4681 72.0223V78.2452ZM31.8666 72.0223C31.8666 70.2515 33.3337 69.3577 34.8328 69.3577C36.3158 69.3577 37.7989 70.2515 37.7989 72.0223V78.2452C37.7989 80.0334 36.3158 80.9272 34.8328 80.9272C33.3337 80.9272 31.8666 80.0334 31.8666 78.2452V72.0223ZM32.8987 78.2452C32.8987 79.3189 33.8509 79.8709 34.8335 79.8709C35.8001 79.8709 36.7515 79.3189 36.7515 78.2452V72.0223C36.7515 70.966 35.7994 70.414 34.8328 70.414C33.8501 70.414 32.898 70.966 32.898 72.0223V78.2452H32.8987ZM44.2469 70.5116L40.3621 70.5433V74.4601H43.9879V75.5164H40.3621V80.8289H39.3132V70.3815C39.3132 69.8447 39.7817 69.4553 40.2501 69.4553H44.2469V70.5116Z" fill="white"/>
<path fill-rule="evenodd" clip-rule="evenodd" d="M23.8161 26.4984C22.5349 26.4984 21.4966 25.4511 21.4966 24.1604C21.4966 22.8705 22.5349 21.8232 23.8161 21.8232C25.0958 21.8232 26.1355 22.8705 26.1355 24.1604C26.1355 25.4511 25.0958 26.4984 23.8161 26.4984ZM11.3634 25.3233C10.9825 25.3233 10.6931 25.1948 10.4592 24.9392C10.2277 24.6829 10.1195 24.3638 10.1195 23.9789C10.1531 22.1487 10.5537 20.3435 11.2979 18.6687C12.0375 17.0052 13.0453 15.5656 14.3143 14.349C15.594 13.1276 17.09 12.1514 18.727 11.4696C20.4016 10.7649 22.2097 10.4271 24.0278 10.4791C27.7946 10.5638 30.9892 11.9498 33.6126 14.6378C34.8694 15.9408 35.8608 17.4725 36.5323 19.1488C37.208 20.8255 37.532 22.6214 37.4845 24.4266C37.4433 26.3055 37.0731 28.0643 36.3746 29.7051C35.6761 31.3489 34.6493 32.809 33.2957 34.0891C31.9841 35.3684 30.5033 36.396 28.8526 37.078C27.2019 37.7608 25.4477 38.0837 23.5838 38.0837H23.4573C23.3301 38.0837 23.0445 38.0164 22.5996 37.974C22.1563 37.9317 21.5956 37.7903 20.9185 37.5982C20.8004 37.565 20.6755 37.5151 20.5529 37.4758C21.1165 36.7635 21.6444 35.9817 21.9102 35.317C22.4724 35.4153 23.049 35.4788 23.647 35.4977C23.9006 35.4977 24.155 35.4871 24.4087 35.4652C24.6624 35.444 24.8962 35.4327 25.1072 35.4327C26.4641 35.2749 27.7783 34.8623 28.9798 34.2169C30.1492 33.5895 31.201 32.7669 32.0892 31.7852C32.9825 30.7973 33.692 29.6598 34.1847 28.4257C34.6959 27.1519 34.9752 25.7981 35.0096 24.4273C35.0096 22.8493 34.7346 21.3665 34.1847 19.9798C33.6355 18.5946 32.8623 17.3886 31.8675 16.3655C30.8607 15.3238 29.6656 14.4792 28.3445 13.8756C26.9723 13.2448 25.4777 12.9194 23.9654 12.9222H23.2661C23.0125 12.9222 22.7588 12.9698 22.5044 13.0121C21.1728 13.1803 19.8827 13.5853 18.6958 14.2076C17.5236 14.8202 16.4707 15.6352 15.5864 16.6143C14.6753 17.6145 13.9446 18.7629 13.4262 20.0093C12.8975 21.2887 12.5997 22.6361 12.5997 24.0432V24.1075C12.5997 24.9181 12.1251 25.3233 11.3634 25.3233ZM23.8351 0C10.671 0 0 10.8148 0 24.1544C0 37.4947 10.6718 48.308 23.8351 48.308C36.9992 48.308 47.6702 37.4947 47.6702 24.1544C47.671 10.8156 36.9992 0 23.8366 0" fill="#EAE8E9"/>
<mask id="mask0_3833_18466" style="mask-type:alpha" maskUnits="userSpaceOnUse" x="1" y="2" width="45" height="45">
<path d="M20.5133 2.28032C17.6667 2.65309 14.91 3.59371 12.3224 5.07571C9.70667 6.5751 7.49081 8.51078 5.7358 10.8298C3.97698 13.1587 2.70109 15.7219 1.94622 18.444C1.19211 21.163 0.97883 24.0045 1.31399 26.8876C1.64915 29.7654 2.56855 32.557 4.04629 35.1846C4.67624 36.2378 5.49738 37.1164 6.46934 37.7652C7.47025 38.4329 8.56332 38.8994 9.71886 39.1519C10.8873 39.4067 12.1015 39.4529 13.3271 39.2895C14.539 39.1263 15.7045 38.7196 16.7526 38.0941L17.3559 37.7387C17.4953 37.6563 17.6118 37.5739 17.701 37.493L17.7665 37.4378C18.8138 36.6068 19.635 35.6292 20.2086 34.5305L20.6785 33.6322L21.684 33.8016C23.9669 34.1895 26.1028 33.8129 28.2151 32.6523C28.3689 32.5608 28.5502 32.4436 28.7178 32.3241C28.9387 32.1691 29.1367 32.0368 29.3264 31.9226C30.2506 31.212 31.0358 30.3391 31.6428 29.3473C32.2486 28.3554 32.6793 27.2681 32.9164 26.1322C33.1503 25.0117 33.1792 23.8563 33.0025 22.6972C32.8203 21.519 32.4268 20.3827 31.8409 19.3422C31.1693 18.2099 30.2868 17.2148 29.2403 16.41C28.2135 15.6274 27.0885 15.0709 25.8964 14.7564C24.6649 14.4363 23.3841 14.3473 22.1197 14.494C20.8416 14.6354 19.6007 15.0588 18.4299 15.7492L17.8282 16.1053C17.6729 16.1971 17.5257 16.3015 17.3879 16.4176L17.3468 16.4493C16.4145 17.1662 15.6174 18.0411 14.9923 19.0338C14.3807 20.0077 13.9475 21.0813 13.7126 22.2049C13.4788 23.3543 13.4466 24.535 13.6174 25.6952C13.7864 26.8675 14.1885 27.9948 14.8003 29.0116L14.9009 29.1953C15.5384 30.5737 15.1431 31.8962 13.868 32.65C13.2007 33.0432 12.4733 33.1385 11.7633 32.9275C11.0968 32.7271 10.5491 32.2924 10.1767 31.6693C9.15518 29.8698 8.5298 27.9734 8.30129 26.006C8.07506 24.0416 8.22512 22.1097 8.74918 20.2617C9.28109 18.4057 10.15 16.6617 11.3131 15.1155C12.5196 13.5081 14.0538 12.1712 15.8157 11.192C19.4202 9.17163 23.2631 8.6741 27.2378 9.71377C29.1568 10.2278 30.9572 11.1062 32.5394 12.3005C34.1236 13.4965 35.4429 15.0035 36.415 16.7276C37.4159 18.4901 38.0535 20.3592 38.3087 22.2805C38.5654 24.2162 38.4077 26.1897 37.8387 28.1428C37.3199 30.0406 36.3762 31.7465 35.2762 33.3578C32.8052 36.9788 31.7731 39.0816 23.2151 46.1098C23.2151 46.1098 25.6381 45.9858 26.684 45.8066C28.1389 45.5578 29.4239 45.2614 30.5048 44.9234C31.5743 44.5907 32.4434 44.2633 33.0878 43.9495C33.9684 43.5201 34.2738 43.3545 34.3782 43.2917C35.2064 42.8021 36.0034 42.2622 36.7646 41.6751C40.7287 38.6892 43.3955 34.7626 44.7041 29.9938C45.494 27.1356 45.7042 24.2548 45.3287 21.4269C44.9517 18.5892 44.0208 15.8338 42.5614 13.2381C41.1103 10.6574 39.2083 8.47146 36.9071 6.7407C34.5736 4.99016 31.9321 3.6863 29.1177 2.89581C27.2143 2.37099 25.2484 2.10318 23.273 2.09961C22.349 2.09961 21.4288 2.1601 20.5133 2.27957M22.3543 27.643C21.3687 27.3942 20.61 26.8067 20.156 25.9394C19.7218 25.1909 19.5786 24.3516 19.7439 23.5085C19.9042 22.6707 20.3598 21.917 21.0289 21.3823L21.2041 21.2598L21.4776 21.098C22.3041 20.6095 23.2524 20.481 24.2198 20.7252C25.1849 20.9694 25.9558 21.5327 26.4463 22.3539L26.4936 22.4408C26.9095 23.2597 27.0237 24.0968 26.8371 24.927C26.6688 25.685 26.2597 26.3694 25.6701 26.8793C25.5148 27.0561 25.3316 27.2067 25.1278 27.3254L25.0409 27.373C24.5177 27.6349 23.9397 27.7709 23.3537 27.77C23.0239 27.77 22.6887 27.7284 22.3543 27.643Z" fill="white"/>
</mask>
<g mask="url(#mask0_3833_18466)">
<path fill-rule="evenodd" clip-rule="evenodd" d="M20.5133 2.28032C17.6667 2.65309 14.91 3.59371 12.3224 5.07571C9.70667 6.5751 7.49081 8.51078 5.7358 10.8298C3.97698 13.1587 2.70109 15.7219 1.94622 18.444C1.19211 21.163 0.97883 24.0045 1.31399 26.8876C1.64915 29.7654 2.56855 32.557 4.04629 35.1846C4.67624 36.2378 5.49738 37.1164 6.46934 37.7652C7.47025 38.4329 8.56332 38.8994 9.71886 39.1519C10.8873 39.4067 12.1015 39.4529 13.3271 39.2895C14.539 39.1263 15.7045 38.7196 16.7526 38.0941L17.3559 37.7387C17.4953 37.6563 17.6118 37.5739 17.701 37.493L17.7665 37.4378C18.8138 36.6068 19.635 35.6292 20.2086 34.5305L20.6785 33.6322L21.684 33.8016C23.9669 34.1895 26.1028 33.8129 28.2151 32.6523C28.3689 32.5608 28.5502 32.4436 28.7178 32.3241C28.9387 32.1691 29.1367 32.0368 29.3264 31.9226C30.2506 31.212 31.0358 30.3391 31.6428 29.3473C32.2486 28.3554 32.6793 27.2681 32.9164 26.1322C33.1503 25.0117 33.1792 23.8563 33.0025 22.6972C32.8203 21.519 32.4268 20.3827 31.8409 19.3422C31.1693 18.2099 30.2868 17.2148 29.2403 16.41C28.2135 15.6274 27.0885 15.0709 25.8964 14.7564C24.6649 14.4363 23.3841 14.3473 22.1197 14.494C20.8416 14.6354 19.6007 15.0588 18.4299 15.7492L17.8282 16.1053C17.6729 16.1971 17.5257 16.3015 17.3879 16.4176L17.3468 16.4493C16.4145 17.1662 15.6174 18.0411 14.9923 19.0338C14.3807 20.0077 13.9475 21.0813 13.7126 22.2049C13.4788 23.3543 13.4466 24.535 13.6174 25.6952C13.7864 26.8675 14.1885 27.9948 14.8003 29.0116L14.9009 29.1953C15.5384 30.5737 15.1431 31.8962 13.868 32.65C13.2007 33.0432 12.4733 33.1385 11.7633 32.9275C11.0968 32.7271 10.5491 32.2924 10.1767 31.6693C9.15518 29.8698 8.5298 27.9734 8.30129 26.006C8.07506 24.0416 8.22512 22.1097 8.74918 20.2617C9.28109 18.4057 10.15 16.6617 11.3131 15.1155C12.5196 13.5081 14.0538 12.1712 15.8157 11.192C19.4202 9.17163 23.2631 8.6741 27.2378 9.71377C29.1568 10.2278 30.9572 11.1062 32.5394 12.3005C34.1236 13.4965 35.4429 15.0035 36.415 16.7276C37.4159 18.4901 38.0535 20.3592 38.3087 22.2805C38.5654 24.2162 38.4077 26.1897 37.8387 28.1428C37.3199 30.0406 36.3762 31.7465 35.2762 33.3578C32.8052 36.9788 31.7731 39.0816 23.2151 46.1098C23.2151 46.1098 25.6381 45.9858 26.684 45.8066C28.1389 45.5578 29.4239 45.2614 30.5048 44.9234C31.5743 44.5907 32.4434 44.2633 33.0878 43.9495C33.9684 43.5201 34.2738 43.3545 34.3782 43.2917C35.2064 42.8021 36.0034 42.2622 36.7646 41.6751C40.7287 38.6892 43.3955 34.7626 44.7041 29.9938C45.494 27.1356 45.7042 24.2548 45.3287 21.4269C44.9517 18.5892 44.0208 15.8338 42.5614 13.2381C41.1103 10.6574 39.2083 8.47146 36.9071 6.7407C34.5736 4.99016 31.9321 3.6863 29.1177 2.89581C27.2143 2.37099 25.2484 2.10318 23.273 2.09961C22.349 2.09961 21.4288 2.1601 20.5133 2.27957M22.3543 27.643C21.3687 27.3942 20.61 26.8067 20.156 25.9394C19.7218 25.1909 19.5786 24.3516 19.7439 23.5085C19.9042 22.6707 20.3598 21.917 21.0289 21.3823L21.2041 21.2598L21.4776 21.098C22.3041 20.6095 23.2524 20.481 24.2198 20.7252C25.1849 20.9694 25.9558 21.5327 26.4463 22.3539L26.4936 22.4408C26.9095 23.2597 27.0237 24.0968 26.8371 24.927C26.6688 25.685 26.2597 26.3694 25.6701 26.8793C25.5148 27.0561 25.3316 27.2067 25.1278 27.3254L25.0409 27.373C24.5177 27.6349 23.9397 27.7709 23.3537 27.77C23.0239 27.77 22.6887 27.7284 22.3543 27.643Z" fill="url(#paint0_linear_3833_18466)"/>
</g>
<defs>
<linearGradient id="paint0_linear_3833_18466" x1="1.16016" y1="24.1051" x2="45.5095" y2="24.1051" gradientUnits="userSpaceOnUse">
<stop stop-color="#2A2B72"/>
<stop offset="1" stop-color="#21977E"/>
</linearGradient>
</defs>
</svg>
