<svg width="34" height="24" viewBox="0 0 34 24" fill="none" xmlns="http://www.w3.org/2000/svg">
<path d="M0 4C0 1.79086 1.79086 0 4 0H30C32.2091 0 34 1.79086 34 4V20C34 22.2091 32.2091 24 30 24H4C1.79086 24 0 22.2091 0 20V4Z" fill="white"/>
<path fill-rule="evenodd" clip-rule="evenodd" d="M10.751 15.8579H8.69129L7.14674 9.79198C7.07343 9.51295 6.91776 9.26627 6.68879 9.15001C6.11737 8.85784 5.4877 8.62531 4.80078 8.50804V8.2745H8.11886C8.57681 8.2745 8.92026 8.62531 8.97751 9.03274L9.77891 13.4083L11.8376 8.2745H13.8401L10.751 15.8579ZM14.985 15.8579H13.0398L14.6415 8.2745H16.5868L14.985 15.8579ZM19.1035 10.3753C19.1607 9.96689 19.5042 9.73335 19.9049 9.73335C20.5346 9.67471 21.2205 9.79199 21.7929 10.0832L22.1364 8.45042C21.5639 8.21688 20.9343 8.09961 20.3628 8.09961C18.4748 8.09961 17.101 9.15002 17.101 10.6078C17.101 11.7169 18.0741 12.2992 18.761 12.65C19.5042 12.9998 19.7904 13.2334 19.7332 13.5832C19.7332 14.1079 19.1607 14.3414 18.5893 14.3414C17.9024 14.3414 17.2155 14.1665 16.5868 13.8743L16.2433 15.5081C16.9303 15.7992 17.6734 15.9165 18.3603 15.9165C20.4773 15.9741 21.7929 14.9247 21.7929 13.3496C21.7929 11.3661 19.1035 11.2498 19.1035 10.3753ZM28.6008 15.8579L27.0562 8.2745H25.3972C25.0537 8.2745 24.7103 8.50804 24.5958 8.85784L21.7356 15.8579H23.7381L24.1378 14.7498H26.5983L26.8273 15.8579H28.6008ZM25.6834 10.3167L26.2548 13.1747H24.653L25.6834 10.3167Z" fill="#172B85"/>
</svg>
