<svg width="64" height="80" viewBox="0 0 64 80" fill="none" xmlns="http://www.w3.org/2000/svg">
<g clip-path="url(#clip0_3077_3761)">
<path d="M9.69961 11.9582C6.29961 11.9582 5.09961 9.69015 5.09961 7.83448C5.09961 5.36025 7.09961 3.71077 9.99961 3.71077H10.4996V2.98912H11.9996V10.4118H22.2996V3.71077H23.7996V10.4118H33.3996V3.71077H34.8996V11.9582H9.69961ZM9.49961 5.25716C8.78716 5.21847 8.08775 5.46498 7.54738 5.94522C7.00702 6.42546 6.66746 7.10231 6.59961 7.83448C6.59961 9.58706 7.99961 10.4118 9.49961 10.4118H10.3996V5.25716H9.49961ZM12.0996 0.927264C12.0969 0.797342 12.0684 0.669367 12.0159 0.55123C11.9634 0.433092 11.888 0.327295 11.7943 0.240362C11.7006 0.153429 11.5906 0.0872015 11.4711 0.0457644C11.3517 0.00432728 11.2252 -0.0114418 11.0996 -0.000570933C10.85 -0.0049591 10.6081 0.0883226 10.4225 0.260486C10.237 0.43265 10.1216 0.670905 10.0996 0.927264C10.1023 1.05719 10.1308 1.18516 10.1833 1.3033C10.2358 1.42144 10.3112 1.52723 10.4049 1.61417C10.4986 1.7011 10.6086 1.76733 10.7281 1.80876C10.8476 1.8502 10.974 1.86597 11.0996 1.8551C11.2252 1.86597 11.3517 1.8502 11.4711 1.80876C11.5906 1.76733 11.7006 1.7011 11.7943 1.61417C11.888 1.52723 11.9634 1.42144 12.0159 1.3033C12.0684 1.18516 12.0969 1.05719 12.0996 0.927264ZM9.39961 0.927264C9.39691 0.797342 9.36843 0.669367 9.31591 0.55123C9.2634 0.433092 9.18797 0.327295 9.09428 0.240362C9.00058 0.153429 8.89061 0.0872015 8.77113 0.0457644C8.65166 0.00432728 8.52522 -0.0114418 8.39961 -0.000570933C8.15001 -0.0049591 7.90807 0.0883226 7.72251 0.260486C7.53696 0.43265 7.42158 0.670905 7.39961 0.927264C7.40231 1.05719 7.43079 1.18516 7.48331 1.3033C7.53582 1.42144 7.61125 1.52723 7.70494 1.61417C7.79864 1.7011 7.90861 1.76733 8.02808 1.80876C8.14756 1.8502 8.274 1.86597 8.39961 1.8551C8.52522 1.86597 8.65166 1.8502 8.77113 1.80876C8.89061 1.76733 9.00058 1.7011 9.09428 1.61417C9.18797 1.52723 9.2634 1.42144 9.31591 1.3033C9.36843 1.18516 9.39691 1.05719 9.39961 0.927264ZM23.9996 14.02C23.9726 13.7661 23.8556 13.5314 23.671 13.3608C23.4865 13.1903 23.2474 13.096 22.9996 13.096C22.7518 13.096 22.5127 13.1903 22.3282 13.3608C22.1436 13.5314 22.0266 13.7661 21.9996 14.02C21.9996 14.2935 22.105 14.5557 22.2925 14.749C22.48 14.9424 22.7344 15.051 22.9996 15.051C23.133 15.0592 23.2666 15.0382 23.3916 14.9894C23.5165 14.9405 23.63 14.8648 23.7245 14.7674C23.819 14.67 23.8924 14.553 23.9398 14.4241C23.9873 14.2953 24.0076 14.1576 23.9996 14.02ZM32.5996 14.02C32.5969 13.8901 32.5684 13.7622 32.5159 13.644C32.4634 13.5259 32.388 13.4201 32.2943 13.3331C32.2006 13.2462 32.0906 13.18 31.9711 13.1385C31.8517 13.0971 31.7252 13.0813 31.5996 13.0922C31.35 13.0878 31.1081 13.1811 30.9225 13.3533C30.737 13.5254 30.6216 13.7637 30.5996 14.02C30.6023 14.15 30.6308 14.2779 30.6833 14.3961C30.7358 14.5142 30.8112 14.62 30.9049 14.707C30.9986 14.7939 31.1086 14.8601 31.2281 14.9015C31.3476 14.943 31.474 14.9588 31.5996 14.9479C31.727 14.9688 31.8573 14.9601 31.981 14.9224C32.1047 14.8848 32.2186 14.819 32.3145 14.7301C32.4103 14.6411 32.4857 14.5312 32.535 14.4084C32.5844 14.2855 32.6064 14.1528 32.5996 14.02ZM35.2996 14.02C35.2969 13.8901 35.2684 13.7622 35.2159 13.644C35.1634 13.5259 35.088 13.4201 34.9943 13.3331C34.9006 13.2462 34.7906 13.18 34.6711 13.1385C34.5517 13.0971 34.4252 13.0813 34.2996 13.0922C34.05 13.0878 33.8081 13.1811 33.6225 13.3533C33.437 13.5254 33.3216 13.7637 33.2996 14.02C33.3023 14.15 33.3308 14.2779 33.3833 14.3961C33.4358 14.5142 33.5112 14.62 33.6049 14.707C33.6986 14.7939 33.8086 14.8601 33.9281 14.9015C34.0476 14.943 34.174 14.9588 34.2996 14.9479C34.4281 14.9771 34.5615 14.9743 34.6887 14.9397C34.8159 14.9051 34.9332 14.8398 35.031 14.749C35.1288 14.6583 35.2042 14.5448 35.2509 14.4181C35.2976 14.2913 35.3143 14.1548 35.2996 14.02ZM37.7996 15.1541C37.4633 15.1661 37.1269 15.1314 36.7996 15.051L36.5996 14.9479L36.9996 13.4015H37.1996C37.3583 13.4686 37.5281 13.5036 37.6996 13.5046C38.3996 13.5046 38.5996 13.2984 38.5996 11.9582V3.60768H40.0996V10.3087H49.1996V3.60768H50.6996V4.53551H55.6996C56.18 4.49815 56.6624 4.57126 57.1121 4.74954C57.5617 4.92783 57.9673 5.20685 58.2996 5.56644C58.8253 6.27168 59.0751 7.15465 58.9996 8.04067V11.9582H39.9996V12.0613C40.1165 12.9674 39.9027 13.8859 39.3996 14.6386C38.9437 15.0031 38.3757 15.1861 37.7996 15.1541ZM50.7996 10.4118H57.4996V8.14376C57.526 7.90402 57.5041 7.66123 57.4353 7.43062C57.3665 7.2 57.2522 6.98653 57.0996 6.80355C56.9229 6.60894 56.7037 6.46063 56.4602 6.37098C56.2167 6.28132 55.9559 6.2529 55.6996 6.28809H50.6996V10.4118H50.7996ZM55.0996 2.26747C55.0996 1.99405 54.9943 1.73183 54.8067 1.53849C54.6192 1.34516 54.3648 1.23654 54.0996 1.23654C53.9662 1.22827 53.8326 1.24928 53.7076 1.29816C53.5827 1.34705 53.4692 1.4227 53.3747 1.52013C53.2802 1.61756 53.2068 1.73455 53.1594 1.86338C53.112 1.9922 53.0916 2.12993 53.0996 2.26747C53.0996 2.54089 53.205 2.80311 53.3925 2.99645C53.58 3.18978 53.8344 3.2984 54.0996 3.2984C54.3528 3.26325 54.5878 3.14333 54.7685 2.95707C54.9492 2.77081 55.0655 2.52853 55.0996 2.26747Z" fill="white"/>
<path d="M11.0996 19.2787C10.8609 19.2787 10.632 19.1809 10.4632 19.0069C10.2944 18.8329 10.1996 18.5969 10.1996 18.3508C10.1996 18.1047 10.2944 17.8687 10.4632 17.6947C10.632 17.5207 10.8609 17.423 11.0996 17.423C11.3383 17.423 11.5672 17.5207 11.736 17.6947C11.9048 17.8687 11.9996 18.1047 11.9996 18.3508C11.9996 18.5969 11.9048 18.8329 11.736 19.0069C11.5672 19.1809 11.3383 19.2787 11.0996 19.2787ZM9.39961 18.3508C9.39691 18.2209 9.36843 18.0929 9.31591 17.9748C9.2634 17.8566 9.18797 17.7508 9.09428 17.6639C9.00058 17.577 8.89061 17.5108 8.77113 17.4693C8.65166 17.4279 8.52522 17.4121 8.39961 17.423C8.15001 17.4186 7.90807 17.5119 7.72251 17.684C7.53696 17.8562 7.42158 18.0945 7.39961 18.3508C7.40231 18.4807 7.43079 18.6087 7.48331 18.7269C7.53582 18.845 7.61125 18.9508 7.70494 19.0377C7.79864 19.1247 7.90861 19.1909 8.02808 19.2323C8.14756 19.2738 8.274 19.2895 8.39961 19.2787C8.64921 19.283 8.89115 19.1898 9.07671 19.0176C9.26226 18.8454 9.37764 18.6072 9.39961 18.3508ZM32.9996 31.5467C32.9969 31.4168 32.9684 31.2888 32.9159 31.1707C32.8634 31.0525 32.788 30.9467 32.6943 30.8598C32.6006 30.7729 32.4906 30.7066 32.3711 30.6652C32.2517 30.6238 32.1252 30.608 31.9996 30.6189C31.75 30.6145 31.5081 30.7077 31.3225 30.8799C31.137 31.0521 31.0216 31.2903 30.9996 31.5467C31.0266 31.8006 31.1436 32.0354 31.3282 32.2059C31.5127 32.3764 31.7518 32.4707 31.9996 32.4707C32.2474 32.4707 32.4865 32.3764 32.6711 32.2059C32.8556 32.0354 32.9726 31.8006 32.9996 31.5467ZM35.7996 31.5467C35.7969 31.4168 35.7684 31.2888 35.7159 31.1707C35.6634 31.0525 35.588 30.9467 35.4943 30.8598C35.4006 30.7729 35.2906 30.7066 35.1711 30.6652C35.0517 30.6238 34.9252 30.608 34.7996 30.6189C34.55 30.6145 34.3081 30.7077 34.1225 30.8799C33.937 31.0521 33.8216 31.2903 33.7996 31.5467C33.8266 31.8006 33.9436 32.0354 34.1282 32.2059C34.3127 32.3764 34.5518 32.4707 34.7996 32.4707C35.0474 32.4707 35.2865 32.3764 35.4711 32.2059C35.6556 32.0354 35.7726 31.8006 35.7996 31.5467ZM44.2996 18.9694C44.2969 18.8395 44.2684 18.7115 44.2159 18.5933C44.1634 18.4752 44.088 18.3694 43.9943 18.2825C43.9006 18.1955 43.7906 18.1293 43.6711 18.0879C43.5517 18.0464 43.4252 18.0307 43.2996 18.0415C43.05 18.0372 42.8081 18.1304 42.6225 18.3026C42.437 18.4748 42.3216 18.713 42.2996 18.9694C42.3023 19.0993 42.3308 19.2273 42.3833 19.3454C42.4358 19.4635 42.5112 19.5693 42.6049 19.6563C42.6986 19.7432 42.8086 19.8094 42.9281 19.8509C43.0476 19.8923 43.174 19.9081 43.2996 19.8972C43.5492 19.9016 43.7912 19.8083 43.9767 19.6362C44.1623 19.464 44.2776 19.2257 44.2996 18.9694ZM46.9996 18.9694C46.9969 18.8395 46.9684 18.7115 46.9159 18.5933C46.8634 18.4752 46.788 18.3694 46.6943 18.2825C46.6006 18.1955 46.4906 18.1293 46.3711 18.0879C46.2517 18.0464 46.1252 18.0307 45.9996 18.0415C45.75 18.0372 45.5081 18.1304 45.3225 18.3026C45.137 18.4748 45.0216 18.713 44.9996 18.9694C45.0266 19.2233 45.1436 19.4581 45.3282 19.6286C45.5127 19.7991 45.7518 19.8934 45.9996 19.8934C46.2474 19.8934 46.4865 19.7991 46.6711 19.6286C46.8556 19.4581 46.9726 19.2233 46.9996 18.9694ZM25.1996 29.4848H54.6996V17.2168H53.1996V27.8354H47.4996V21.1343H45.3996C42.4996 21.1343 40.5996 22.7838 40.5996 25.258C40.5934 26.169 40.9139 27.0501 41.4996 27.7323L41.5996 27.8354H34.3996V21.1343H32.8996V27.8354H26.2996V27.7323C26.4222 27.2612 26.4893 26.7766 26.4996 26.289C26.4996 25.1269 26.0518 24.0125 25.2548 23.1908C24.4578 22.3691 23.3768 21.9075 22.2496 21.9075C21.1224 21.9075 20.0414 22.3691 19.2444 23.1908C18.4474 24.0125 17.9996 25.1269 17.9996 26.289C18.0171 26.776 18.0841 27.2597 18.1996 27.7323V27.8354H11.9996V20.4127H10.4996V21.1343H9.99961C7.09961 21.1343 5.09961 22.8869 5.09961 25.258C5.09961 27.2168 6.39961 29.3817 9.99961 29.3817H19.0996C19.8916 30.215 20.9683 30.696 22.0996 30.7219C23.2488 30.7356 24.3589 30.2926 25.1996 29.4848ZM24.8996 26.289C24.8897 26.8452 24.7213 27.3861 24.4154 27.8443C24.1094 28.3025 23.6795 28.6579 23.1791 28.866C22.6787 29.0742 22.1299 29.126 21.6012 29.0149C21.0725 28.9039 20.5871 28.635 20.2055 28.2416C19.824 27.8483 19.5631 27.3479 19.4554 26.8028C19.3477 26.2577 19.3979 25.692 19.5999 25.1761C19.8018 24.6602 20.1464 24.217 20.5909 23.9016C21.0354 23.5862 21.5601 23.4126 22.0996 23.4024C22.4673 23.4024 22.8314 23.477 23.1711 23.6221C23.5108 23.7672 23.8195 23.9798 24.0795 24.2478C24.3395 24.5159 24.5458 24.8341 24.6865 25.1843C24.8272 25.5345 24.8996 25.9099 24.8996 26.289ZM45.8996 22.6807V27.8354H43.5996C43.1369 27.5883 42.7455 27.2201 42.4646 26.7677C42.1838 26.3153 42.0234 25.7946 41.9996 25.258C42.0131 24.8971 42.0971 24.5427 42.2464 24.216C42.3957 23.8893 42.6074 23.5969 42.8687 23.3564C43.13 23.1158 43.4357 22.932 43.7674 22.8159C44.0992 22.6998 44.4502 22.6539 44.7996 22.6807H45.8996ZM10.3996 22.6807V27.8354H9.49961C9.14299 27.8734 8.7826 27.8359 8.44054 27.7251C8.09848 27.6144 7.78197 27.4328 7.51042 27.1915C7.23888 26.9502 7.01802 26.6542 6.8614 26.3217C6.70477 25.9892 6.61569 25.6273 6.59961 25.258C6.62492 24.8921 6.72013 24.535 6.87977 24.2072C7.03941 23.8794 7.26033 23.5873 7.52983 23.3478C7.79933 23.1083 8.11209 22.926 8.45014 22.8116C8.78818 22.6971 9.14484 22.6526 9.49961 22.6807H10.3996ZM58.9996 17.2168H57.4996V29.3817H58.9996V17.2168Z" fill="white"/>
<path d="M11.2 36.8036C11.0738 36.8174 10.9463 36.8036 10.8256 36.7632C10.705 36.7228 10.5939 36.6568 10.4996 36.5693C10.4053 36.4818 10.3299 36.3748 10.2783 36.2554C10.2267 36.1359 10.2 36.0066 10.2 35.8758C10.2 35.745 10.2267 35.6157 10.2783 35.4962C10.3299 35.3767 10.4053 35.2698 10.4996 35.1823C10.5939 35.0948 10.705 35.0287 10.8256 34.9884C10.9463 34.948 11.0738 34.9342 11.2 34.948C11.3256 34.9371 11.4521 34.9529 11.5715 34.9943C11.691 35.0357 11.801 35.102 11.8947 35.1889C11.9884 35.2758 12.0638 35.3816 12.1163 35.4998C12.1688 35.6179 12.1973 35.7459 12.2 35.8758C12.1627 36.1256 12.0427 36.3545 11.8605 36.5235C11.6782 36.6926 11.4449 36.7916 11.2 36.8036ZM9.4 35.7727C9.3973 35.6428 9.36882 35.5148 9.3163 35.3967C9.26379 35.2785 9.18836 35.1727 9.09467 35.0858C9.00097 34.9989 8.891 34.9326 8.77152 34.8912C8.65205 34.8498 8.52561 34.834 8.4 34.8449C8.1504 34.8405 7.90846 34.9338 7.7229 35.1059C7.53735 35.2781 7.42197 35.5163 7.4 35.7727C7.4027 35.9026 7.43118 36.0306 7.4837 36.1487C7.53621 36.2669 7.61164 36.3727 7.70533 36.4596C7.79903 36.5465 7.909 36.6128 8.02848 36.6542C8.14795 36.6956 8.27439 36.7114 8.4 36.7005C8.52847 36.7297 8.66184 36.727 8.78905 36.6924C8.91626 36.6578 9.03363 36.5924 9.13141 36.5017C9.2292 36.411 9.30458 36.2975 9.35129 36.1707C9.398 36.0439 9.4147 35.9075 9.4 35.7727ZM21.2 46.9067V38.6593H19.1C16.2 38.6593 14.3 40.3088 14.3 42.783C14.2938 43.6939 14.6143 44.5751 15.2 45.2572L15.3 45.3603H11.9V37.9376H10.4V38.6593H9.9C7 38.6593 5 40.4119 5 42.783C5 44.7418 6.3 46.9067 9.9 46.9067H21.2ZM19.7 40.1026V45.2572H17.5C17.0373 45.0102 16.6459 44.642 16.365 44.1896C16.0842 43.7372 15.9238 43.2165 15.9 42.6799C15.9148 42.3194 15.9995 41.9657 16.1493 41.6395C16.299 41.3134 16.5106 41.0216 16.7717 40.7813C17.0328 40.541 17.3379 40.3571 17.6692 40.2405C18.0004 40.1239 18.3509 40.077 18.7 40.1026H19.7ZM10.4 40.1026V45.2572H9.5C9.14338 45.2952 8.78299 45.2577 8.44093 45.147C8.09887 45.0363 7.78236 44.8547 7.51081 44.6134C7.23927 44.372 7.01841 44.0761 6.86179 43.7436C6.70516 43.4111 6.61608 43.0491 6.6 42.6799C6.62531 42.314 6.72052 41.9569 6.88016 41.6291C7.0398 41.3012 7.26072 41.0092 7.53022 40.7697C7.79972 40.5301 8.11248 40.3479 8.45053 40.2334C8.78857 40.119 9.14523 40.0745 9.5 40.1026H10.4ZM19.5 36.3913C19.5 36.1178 19.3946 35.8556 19.2071 35.6623C19.0196 35.4689 18.7652 35.3603 18.5 35.3603C18.3666 35.3521 18.233 35.3731 18.108 35.4219C17.9831 35.4708 17.8696 35.5465 17.7751 35.6439C17.6806 35.7413 17.6072 35.8583 17.5598 35.9872C17.5124 36.116 17.492 36.2537 17.5 36.3913C17.5 36.6647 17.6054 36.9269 17.7929 37.1202C17.9804 37.3136 18.2348 37.4222 18.5 37.4222C18.7532 37.387 18.9882 37.2671 19.1689 37.0808C19.3496 36.8946 19.4659 36.6523 19.5 36.3913ZM34.4 37.1129C34.4 36.8395 34.2946 36.5773 34.1071 36.3839C33.9196 36.1906 33.6652 36.082 33.4 36.082C33.2666 36.0737 33.133 36.0947 33.008 36.1436C32.8831 36.1925 32.7696 36.2681 32.6751 36.3656C32.5806 36.463 32.5072 36.58 32.4598 36.7088C32.4123 36.8376 32.392 36.9754 32.4 37.1129C32.4 37.3863 32.5054 37.6485 32.6929 37.8419C32.8804 38.0352 33.1348 38.1438 33.4 38.1438C33.6652 38.1438 33.9196 38.0352 34.1071 37.8419C34.2946 37.6485 34.4 37.3863 34.4 37.1129ZM48.5 46.9067H54.7V34.6387H53.2V45.2572H49.5V45.1541C49.6226 44.683 49.6897 44.1985 49.7 43.7108C49.7 42.5488 49.2522 41.4344 48.4552 40.6127C47.6582 39.791 46.5772 39.3294 45.45 39.3294C44.3228 39.3294 43.2418 39.791 42.4448 40.6127C41.6478 41.4344 41.2 42.5488 41.2 43.7108C41.2175 44.1978 41.2845 44.6816 41.4 45.1541V45.2572H38.4V42.9892C38.4115 42.1109 38.1677 41.2492 37.7 40.515C37.3736 40.1473 36.9689 39.8629 36.5177 39.684C36.0665 39.5051 35.5812 39.4366 35.1 39.484H30.3V38.5562H28.8V45.2572H25.1V34.6387H23.6V46.8036H42.4C43.1997 47.6435 44.288 48.1252 45.4295 48.1445C46.571 48.1638 47.674 47.7191 48.5 46.9067ZM48.2 43.8139C48.1901 44.3701 48.0217 44.911 47.7158 45.3693C47.4098 45.8275 46.9799 46.1828 46.4795 46.391C45.9791 46.5992 45.4303 46.6509 44.9016 46.5399C44.3728 46.4289 43.8875 46.1599 43.5059 45.7666C43.1244 45.3732 42.8635 44.8728 42.7558 44.3278C42.6481 43.7827 42.6983 43.2169 42.9002 42.7011C43.1022 42.1852 43.4468 41.7419 43.8913 41.4265C44.3358 41.1112 44.8605 40.9375 45.4 40.9273C45.7724 40.9093 46.1443 40.9715 46.4919 41.1102C46.8396 41.2489 47.1553 41.4609 47.4189 41.7326C47.6825 42.0043 47.8881 42.3298 48.0226 42.6882C48.1571 43.0466 48.2175 43.4301 48.2 43.8139ZM30.3 41.0304H35.1C35.6139 41.008 36.1161 41.1929 36.5 41.5459C36.6526 41.7289 36.7668 41.9423 36.8357 42.173C36.9045 42.4036 36.9264 42.6464 36.9 42.8861V45.1541H30.3V41.0304ZM59 34.6387H57.5V46.8036H59V34.6387Z" fill="white"/>
<path d="M60.8 79.9999H3.3C2.42713 79.9921 1.59215 79.6312 0.974916 78.9949C0.35768 78.3585 0.00757131 77.4977 0 76.5979L0 58.1443C0.00757131 57.2444 0.35768 56.3836 0.974916 55.7473C1.59215 55.1109 2.42713 54.75 3.3 54.7422H60.7C61.5729 54.75 62.4078 55.1109 63.0251 55.7473C63.6423 56.3836 63.9924 57.2444 64 58.1443V76.5979C64.0074 77.0381 63.9304 77.4755 63.7735 77.885C63.6165 78.2944 63.3827 78.6679 63.0854 78.984C62.788 79.3001 62.4331 79.5526 62.0409 79.7269C61.6488 79.9012 61.227 79.994 60.8 79.9999Z" fill="#D19E2C"/>
<path d="M14.1008 72.0618L18.0008 58.5566H23.4008C21.6008 64.1237 17.7008 76.0824 17.7008 76.0824H10.5008C10.5008 76.0824 6.60078 64.1237 4.80078 58.5566H10.2008L14.1008 72.0618Z" fill="white"/>
<path d="M59.3008 58.5566H41.3008L42.7008 62.5773H48.4008V76.0824H53.6008V62.5773H59.3008V58.5566Z" fill="white"/>
<path d="M41.0996 65.0516L40.5996 63.8145C37.7996 65.6701 33.0996 71.4433 33.0996 71.4433L31.3996 69.4846L30.7996 71.6495L30.5996 71.9588C31.2996 72.8866 32.9996 76.1856 32.9996 76.1856C37.1996 68.3505 41.0996 65.0516 41.0996 65.0516Z" fill="#005E4B"/>
<path d="M32.3992 62.6788L34.1992 68.8644C35.4231 67.4479 36.7252 66.1055 38.0992 64.8438L36.0992 58.6582H28.8992C28.8992 58.6582 24.9992 70.617 23.1992 76.184H28.5992L32.3992 62.6788Z" fill="white"/>
<path d="M35.5 73.5042L36.3 76.1847H41.7C41 74.1228 40.1 71.2362 39.2 68.3496C37.7935 69.9282 36.5532 71.6561 35.5 73.5042Z" fill="white"/>
</g>
<defs>
<clipPath id="clip0_3077_3761">
<rect width="64" height="80" fill="white"/>
</clipPath>
</defs>
</svg>
